<?xml version="1.0" encoding="UTF-8"?>
<!DOCTYPE svg PUBLIC "-//W3C//DTD SVG 1.1//EN" "http://www.w3.org/Graphics/SVG/1.1/DTD/svg11.dtd">
<!-- Creator: CorelDRAW -->
<svg xmlns="http://www.w3.org/2000/svg" xml:space="preserve" width="8.5in" height="11in" version="1.1" style="shape-rendering:geometricPrecision; text-rendering:geometricPrecision; image-rendering:optimizeQuality; fill-rule:evenodd; clip-rule:evenodd"
viewBox="0 0 8500 11000"
 xmlns:xlink="http://www.w3.org/1999/xlink"
 xmlns:xodm="http://www.corel.com/coreldraw/odm/2003">
 <defs>
  <style type="text/css">
   <![CDATA[
    .fil0 {fill:#3A82F6}
    .fil1 {fill:#FFFEFF}
   ]]>
  </style>
 </defs>
 <g id="Layer_x0020_1">
  <metadata id="CorelCorpID_0Corel-Layer"/>
  <g id="_3130409960112">
   <path class="fil0" d="M4372.73 3615.15c178.02,-43.52 241.67,221.17 68.04,266.58 -177.65,46.46 -247.76,-222.64 -68.04,-266.58zm207.56 159.84c14.06,-78.48 -32.75,-139.12 -75.1,-166.73 -56.03,-36.53 -151.24,-25.41 -224.35,-25.41 -56.63,0 -196.67,-6.48 -242.44,7.04 -124.74,36.85 -170.49,210.06 -39.58,299.2 53.88,36.69 153.3,25.03 224.43,25.03 138.91,0 325.78,35.36 357.05,-139.13z"/>
   <path class="fil1" d="M4371.89 3613.42c-179.72,44.66 -109.61,318.17 68.04,270.95 173.63,-46.15 109.97,-315.19 -68.04,-270.95z"/>
  </g>
 </g>
</svg>
