<?xml version="1.0" encoding="UTF-8"?>
<!DOCTYPE svg PUBLIC "-//W3C//DTD SVG 1.1//EN" "http://www.w3.org/Graphics/SVG/1.1/DTD/svg11.dtd">
<!-- Creator: CorelDRAW -->
<svg xmlns="http://www.w3.org/2000/svg" xml:space="preserve" width="8.5in" height="11in" version="1.1" style="shape-rendering:geometricPrecision; text-rendering:geometricPrecision; image-rendering:optimizeQuality; fill-rule:evenodd; clip-rule:evenodd"
viewBox="0 0 8500 11000"
 xmlns:xlink="http://www.w3.org/1999/xlink"
 xmlns:xodm="http://www.corel.com/coreldraw/odm/2003">
 <defs>
  <style type="text/css">
   <![CDATA[
    .fil0 {fill:#E3E3E3}
    .fil1 {fill:#FFFEFF}
   ]]>
  </style>
 </defs>
 <g id="Layer_x0020_1">
  <metadata id="CorelCorpID_0Corel-Layer"/>
  <g id="_3130413420208">
   <path class="fil0" d="M4403.89 5593.72c77.25,-20.3 141.6,32.43 156.59,94.69 18.2,75.6 -34.07,139.09 -93.23,154.3 -164.41,42.27 -232.89,-204.44 -63.36,-248.98zm-134.49 131.13c0,50.74 30.17,89.19 54.59,110.55 36.39,31.83 69.1,37.61 128.34,37.61l255.73 0c57.07,0 84.65,-7.29 122.11,-34.99 23.4,-17.3 50.6,-55.31 56.24,-100.98 11.45,-92.79 -59.11,-165.98 -138.63,-172.74 -91.81,-7.81 -217.74,-0.52 -313.53,-0.97 -95.69,-0.44 -164.85,61.24 -164.85,161.52z"/>
   <path class="fil1" d="M4400.68 5592.94c-174.69,44.83 -104.12,293.11 65.28,250.57 60.95,-15.3 114.82,-79.2 96.07,-155.28 -15.44,-62.65 -81.75,-115.72 -161.35,-95.29z"/>
  </g>
 </g>
</svg>
